<svg width="174" height="61" viewBox="0 0 174 61" fill="none" xmlns="http://www.w3.org/2000/svg">
<g clip-path="url(#clip0_3204_54)">
<path d="M44.263 14.2546C43.8125 13.6368 43.085 13.2633 42.3106 13.2633H29.1786C28.1132 13.2633 27.1698 13.9595 26.8741 14.9739L23.0115 28.3082C22.866 28.8199 22.1338 28.8199 21.9836 28.3082L18.1539 14.9831C17.8629 13.9641 16.9195 13.2633 15.8447 13.2633H2.37477C2.03685 13.2633 1.69892 13.3186 1.39855 13.4662C0.20174 14.0517 -0.248822 15.3197 0.136033 16.4032L9.38665 42.1957C9.92169 43.7126 10.8181 45.5431 12.1135 47.0923C12.137 47.12 12.1604 47.1476 12.1886 47.1753C12.4045 47.3874 12.7049 47.5211 13.0381 47.5211C13.7045 47.5211 14.2396 46.9955 14.2396 46.3454C14.2396 46.0918 14.1645 45.8705 14.0378 45.6814C13.9908 45.6169 13.9439 45.5615 13.8923 45.5062C12.8832 44.2705 12.1276 42.7767 11.6535 41.4211L3.52464 18.7547C2.98021 17.2239 4.13478 15.6194 5.78684 15.6194H15.6288C15.7555 15.6194 15.8682 15.7024 15.901 15.8223L16.1639 16.7352C16.3047 17.2101 15.9386 17.6758 15.4458 17.6758H8.8563C8.52307 17.6758 8.18984 17.7311 7.89416 17.874C6.71143 18.4458 6.2421 19.6907 6.61287 20.7742L13.606 41.292V41.3012C14.2396 43.1178 15.4317 44.561 17.0885 45.5892C18.6936 46.5897 20.4818 47.0877 22.392 47.0877C24.3022 47.0877 26.1138 46.5943 27.7095 45.5846C29.3616 44.5564 30.5443 43.1132 31.1732 41.3012V41.292L38.171 20.7742C38.4151 20.0549 38.2931 19.2665 37.8425 18.6533C37.3919 18.04 36.6692 17.6758 35.8995 17.6758H29.1645C28.8735 17.6758 28.667 17.4038 28.7468 17.1317L29.1222 15.8223C29.1598 15.7024 29.2677 15.6194 29.3945 15.6194H39.7809C41.0152 15.6194 41.8835 16.8182 41.4752 17.9663L33.1679 41.4211C32.6845 42.8089 31.9617 44.3535 30.962 45.603C30.9433 45.6307 30.9198 45.6584 30.8963 45.686C30.7649 45.8751 30.6898 46.1056 30.6898 46.35C30.6898 46.7742 30.9198 47.143 31.253 47.3505L31.4971 47.4612C31.6191 47.5027 31.7505 47.5257 31.8866 47.5257C32.2199 47.5257 32.5202 47.3966 32.7361 47.1845C32.7502 47.1707 32.7549 47.1661 32.7643 47.1569C32.8065 47.1108 32.8488 47.0554 32.8863 47.0139C32.8957 47.0001 32.9004 46.9909 32.9051 46.9816C34.1348 45.4324 34.9326 43.625 35.4348 42.1865L44.5728 16.394C44.8309 15.6747 44.7136 14.8771 44.263 14.2546ZM33.3979 20.0273C34.6229 20.0273 35.4958 21.2168 35.1016 22.3557L28.9063 40.5451C28.4605 41.8268 27.6298 42.8504 26.4142 43.602C25.2361 44.3535 23.8938 44.727 22.392 44.727C20.8901 44.727 19.5806 44.3535 18.3651 43.602C17.1589 42.8504 16.3281 41.8268 15.8776 40.5451L9.67764 22.3557C9.28809 21.2168 10.1564 20.0273 11.3813 20.0273H16.5722C16.8444 20.0273 17.0744 20.2071 17.1542 20.4607L21.9179 37.0916C21.9461 37.1977 21.993 37.3175 22.0587 37.4098C22.1197 37.5066 22.1948 37.5757 22.3122 37.608C22.3544 37.6218 22.4013 37.6265 22.4389 37.6265C22.4624 37.6265 22.4905 37.6265 22.514 37.6218C22.6736 37.6034 22.8097 37.4974 22.8801 37.359C22.8941 37.3268 22.9129 37.2899 22.9176 37.2484L27.8222 20.4561C27.8973 20.2071 28.1366 20.0273 28.3995 20.0273H33.3979Z" fill="#1A4F3F"/>
<path d="M32.1786 23.4765L27.457 38.6643C27.457 38.6643 27.4523 38.6827 27.4523 38.6873C27.1003 39.7017 26.4386 40.504 25.5093 41.0849C24.6175 41.652 23.6038 41.9287 22.5149 41.9287C21.4261 41.9287 20.4264 41.6474 19.5252 41.0849C18.5913 40.5086 17.9295 39.7017 17.5775 38.6873C17.5775 38.6827 17.5728 38.6735 17.5728 38.6689L12.6072 23.4673C12.4148 22.8725 12.748 22.2316 13.3535 22.0426C13.9636 21.8489 14.6113 22.1809 14.8084 22.7757L19.7646 37.9634C19.943 38.466 20.2574 38.8579 20.7549 39.1668C21.2853 39.4942 21.8579 39.6602 22.5149 39.6602C23.172 39.6602 23.7634 39.4942 24.2609 39.1761L24.2702 39.1668C24.7677 38.8579 25.0869 38.466 25.2605 37.9681L29.9774 22.7895C30.1698 22.1947 30.8222 21.8627 31.4276 22.0518C32.0378 22.2408 32.371 22.8817 32.1786 23.4765Z" fill="#1A4F3F"/>
</g>
<path d="M156.901 38.0836V33.5023H166.101C166.35 33.5023 166.573 33.4526 166.772 33.3533C166.97 33.2292 167.132 33.0678 167.256 32.8691C167.38 32.6705 167.442 32.4594 167.442 32.2359C167.442 31.9876 167.38 31.7641 167.256 31.5655C167.132 31.3668 166.97 31.2178 166.772 31.1185C166.573 30.9944 166.35 30.9323 166.101 30.9323H162.749C161.507 30.9323 160.378 30.7336 159.36 30.3363C158.366 29.9142 157.572 29.2686 156.976 28.3995C156.405 27.5056 156.119 26.351 156.119 24.9356C156.119 23.843 156.38 22.8498 156.901 21.9559C157.448 21.062 158.18 20.3419 159.099 19.7956C160.042 19.2493 161.073 18.9762 162.19 18.9762H171.39V23.5947H163.084C162.737 23.5947 162.439 23.7065 162.19 23.9299C161.967 24.1534 161.855 24.4266 161.855 24.7494C161.855 25.097 161.967 25.395 162.19 25.6433C162.439 25.8668 162.737 25.9785 163.084 25.9785H166.362C167.752 25.9785 168.944 26.1896 169.938 26.6117C170.956 27.009 171.738 27.6546 172.284 28.5485C172.855 29.4424 173.141 30.5971 173.141 32.0124C173.141 33.1298 172.855 34.1479 172.284 35.0667C171.738 35.9854 170.993 36.7179 170.049 37.2642C169.131 37.8105 168.088 38.0836 166.921 38.0836H156.901Z" fill="#191914"/>
<path d="M141.975 38.5304C140.286 38.5304 138.797 38.0958 137.505 37.2268C136.214 36.3577 135.208 35.1906 134.488 33.7256C133.768 32.2357 133.408 30.5596 133.408 28.6973C133.408 26.7605 133.83 25.0347 134.675 23.5201C135.519 21.9805 136.711 20.7638 138.25 19.8699C139.815 18.976 141.652 18.529 143.763 18.529C145.898 18.529 147.711 18.976 149.201 19.8699C150.715 20.739 151.87 21.9433 152.665 23.4828C153.484 24.9975 153.894 26.6984 153.894 28.5856V38.0834H148.232V35.0292H148.083C147.736 35.6997 147.289 36.308 146.742 36.8543C146.196 37.3757 145.526 37.7855 144.731 38.0834C143.961 38.3814 143.043 38.5304 141.975 38.5304ZM143.688 33.5394C144.557 33.5394 145.315 33.3283 145.96 32.9062C146.631 32.4592 147.14 31.8508 147.487 31.0811C147.835 30.3113 148.009 29.4547 148.009 28.5111C148.009 27.5923 147.835 26.7605 147.487 26.0156C147.14 25.2706 146.631 24.6871 145.96 24.265C145.315 23.818 144.557 23.5945 143.688 23.5945C142.794 23.5945 142.012 23.818 141.342 24.265C140.671 24.6871 140.162 25.2706 139.815 26.0156C139.467 26.7605 139.293 27.5923 139.293 28.5111C139.293 29.4547 139.467 30.3113 139.815 31.0811C140.162 31.8508 140.671 32.4592 141.342 32.9062C142.012 33.3283 142.794 33.5394 143.688 33.5394Z" fill="#191914"/>
<path d="M125.991 38.0839C124.228 38.0839 122.85 37.5873 121.857 36.594C120.864 35.576 120.367 34.2103 120.367 32.4969V14.3206H126.177V32.1617C126.177 32.4597 126.277 32.7204 126.475 32.9439C126.699 33.1425 126.96 33.2419 127.258 33.2419H131.429V38.0839H125.991ZM117.238 23.7068V18.9765H131.429V23.7068H117.238Z" fill="#191914"/>
<path d="M108.949 38.0838V18.9764H114.76V38.0838H108.949ZM111.854 16.8161C110.936 16.8161 110.141 16.4809 109.471 15.8105C108.8 15.14 108.465 14.3454 108.465 13.4267C108.465 12.5079 108.8 11.7133 109.471 11.0429C110.141 10.3476 110.936 10 111.854 10C112.773 10 113.568 10.3476 114.238 11.0429C114.908 11.7133 115.244 12.5079 115.244 13.4267C115.244 14.3454 114.908 15.14 114.238 15.8105C113.568 16.4809 112.773 16.8161 111.854 16.8161Z" fill="#191914"/>
<path d="M95.1953 38.0836V24.6003C95.1953 22.8622 95.6919 21.4965 96.6852 20.5032C97.6784 19.51 99.0565 19.0134 100.82 19.0134H106.369V23.7064H102.235C101.887 23.7064 101.589 23.8306 101.341 24.0789C101.093 24.3024 100.969 24.6003 100.969 24.9728V38.0836H95.1953Z" fill="#191914"/>
<path d="M84.7353 38.0834C82.5751 38.0834 80.6755 37.6861 79.0366 36.8915C77.3978 36.0721 76.119 34.9547 75.2002 33.5394C74.3063 32.0992 73.8594 30.4355 73.8594 28.5483C73.8594 26.4625 74.2939 24.6747 75.163 23.1848C76.0321 21.695 77.1867 20.5527 78.6269 19.7582C80.092 18.9387 81.706 18.529 83.469 18.529C85.4803 18.529 87.1564 18.9511 88.4972 19.7954C89.8629 20.6397 90.8934 21.7943 91.5887 23.2593C92.284 24.6995 92.6316 26.3508 92.6316 28.2131C92.6316 28.5359 92.6068 28.9208 92.5571 29.3677C92.5323 29.7899 92.495 30.1251 92.4454 30.3734H79.9306C80.0795 31.019 80.3651 31.5653 80.7872 32.0122C81.2093 32.4592 81.7432 32.7944 82.3888 33.0179C83.0344 33.2166 83.7545 33.3159 84.5491 33.3159H90.3968V38.0834H84.7353ZM79.7816 26.7605H87.0446C86.995 26.3632 86.9205 25.9783 86.8212 25.6059C86.7218 25.2334 86.5604 24.9106 86.3369 24.6374C86.1383 24.3395 85.9024 24.0912 85.6293 23.8925C85.3561 23.669 85.0333 23.4952 84.6609 23.3711C84.3132 23.2469 83.9159 23.1848 83.469 23.1848C82.8979 23.1848 82.3888 23.2842 81.9419 23.4828C81.4949 23.6815 81.1224 23.9546 80.8245 24.3022C80.5265 24.625 80.2906 25.0099 80.1168 25.4569C79.9678 25.879 79.8561 26.3135 79.7816 26.7605Z" fill="#191914"/>
<path d="M63.0934 38.5306C61.9511 38.5306 60.9082 38.2326 59.9646 37.6367C59.0211 37.0407 58.3755 36.2337 58.0278 35.2156L52.5898 18.9762H58.9217L62.7581 32.6084C62.8078 32.7077 62.8575 32.7822 62.9071 32.8319C62.9816 32.8815 63.0561 32.9064 63.1306 32.9064C63.2299 32.9064 63.3044 32.8815 63.3541 32.8319C63.4286 32.7822 63.4782 32.7077 63.5031 32.6084L67.4139 18.9762H73.5969L68.1589 35.2156C67.8112 36.2337 67.1656 37.0407 66.2221 37.6367C65.3033 38.2326 64.2604 38.5306 63.0934 38.5306Z" fill="#191914"/>
<path d="M143.615 50.7886C143.166 50.7886 142.773 50.7068 142.433 50.5432C142.1 50.3796 141.836 50.1463 141.642 49.8433C141.455 49.5403 141.358 49.1798 141.352 48.7617H142.37C142.376 49.0828 142.485 49.3585 142.697 49.5888C142.915 49.813 143.218 49.9251 143.606 49.9251C143.963 49.9251 144.242 49.8433 144.442 49.6797C144.642 49.51 144.742 49.2919 144.742 49.0253C144.742 48.8011 144.681 48.6162 144.56 48.4708C144.445 48.3193 144.263 48.186 144.015 48.0709C143.766 47.9497 143.445 47.8255 143.051 47.6982C142.524 47.5285 142.136 47.2952 141.888 46.9983C141.639 46.6953 141.515 46.3257 141.515 45.8894C141.515 45.3865 141.697 44.9805 142.061 44.6714C142.424 44.3624 142.924 44.2079 143.56 44.2079C144.178 44.2079 144.675 44.3685 145.051 44.6896C145.427 45.0047 145.621 45.444 145.633 46.0076H144.606C144.606 45.8561 144.563 45.7107 144.478 45.5713C144.393 45.4259 144.272 45.3077 144.115 45.2168C143.957 45.1199 143.763 45.0714 143.533 45.0714C143.248 45.0653 143.009 45.135 142.815 45.2804C142.621 45.4198 142.524 45.6107 142.524 45.8531C142.524 46.15 142.642 46.3833 142.879 46.5529C143.115 46.7166 143.5 46.8862 144.033 47.062C144.366 47.171 144.66 47.3043 144.915 47.4619C145.175 47.6134 145.378 47.8103 145.524 48.0527C145.675 48.289 145.751 48.592 145.751 48.9616C145.751 49.301 145.666 49.61 145.496 49.8887C145.327 50.1614 145.081 50.3796 144.76 50.5432C144.445 50.7068 144.063 50.7886 143.615 50.7886Z" fill="#191914"/>
<path d="M121.523 50.6795V44.3169H123.796C124.456 44.3169 124.956 44.4684 125.296 44.7714C125.635 45.0744 125.805 45.4652 125.805 45.9439C125.805 46.3136 125.708 46.6135 125.514 46.8438C125.32 47.074 125.096 47.2407 124.841 47.3437V47.4073C125.144 47.5164 125.405 47.6951 125.623 47.9436C125.841 48.186 125.95 48.5071 125.95 48.9071C125.95 49.2343 125.868 49.5342 125.705 49.8069C125.547 50.0735 125.314 50.2856 125.005 50.4432C124.696 50.6007 124.317 50.6795 123.868 50.6795H121.523ZM122.487 46.971H123.678C124.047 46.971 124.329 46.8983 124.523 46.7529C124.717 46.6014 124.814 46.3742 124.814 46.0712C124.814 45.4713 124.429 45.1713 123.659 45.1713H122.487V46.971ZM122.487 49.7887H123.741C124.135 49.7887 124.438 49.7039 124.65 49.5342C124.862 49.3646 124.968 49.1161 124.968 48.7889C124.968 48.4677 124.856 48.2223 124.632 48.0527C124.408 47.8769 124.105 47.7891 123.723 47.7891H122.487V49.7887Z" fill="#191914"/>
<path d="M101.457 50.6795L103.357 44.3169H104.502L106.402 50.6795H105.356L104.929 49.1525H102.93L102.502 50.6795H101.457ZM103.902 45.6803L103.148 48.3799H104.711L103.957 45.6803H103.902Z" fill="#191914"/>
<path d="M82.127 50.6795V44.3169H83.0904V49.816H86.2263V50.6795H82.127Z" fill="#191914"/>
<defs>
<clipPath id="clip0_3204_54">
<rect width="44.7043" height="34.2624" fill="white" transform="translate(0 13.2631)"/>
</clipPath>
</defs>
</svg>
